<svg width="64" height="64" viewBox="0 0 64 64" fill="none" xmlns="http://www.w3.org/2000/svg">
<path d="M50 11C50 8.79086 48.2091 7 46 7H14C11.7909 7 10 8.79086 10 11V48C10 50.2091 11.7909 52 14 52H46C48.2091 52 50 50.2091 50 48V11Z" fill="#FF901F"/>
<path d="M10 11C10 8.79086 11.7909 7 14 7H46C48.2091 7 50 8.79086 50 11V22H10V11Z" fill="#FF9E3B"/>
<path d="M10 48C10 50.2091 11.7909 52 14 52H46C48.2091 52 50 50.2091 50 48V37H10V48Z" fill="#F28514"/>
<g filter="url(#filter0_d_1029_9440)">
<path d="M34 38C34 35.7909 35.7909 34 38 34H54C56.2091 34 58 35.7909 58 38V54C58 56.2091 56.2091 58 54 58H38C35.7909 58 34 56.2091 34 54V38Z" fill="url(#paint0_linear_1029_9440)"/>
</g>
<path d="M53.0318 47.0322L48.9995 43M53.0318 47.0322L48.9995 51M53.0318 47.0322L42.0317 47.0322C40.9272 47.0322 40.0317 46.1368 40.0317 45.0322L40.0317 41" stroke="white" stroke-width="2.5" stroke-linecap="round" stroke-linejoin="round"/>
<path d="M16.6042 16.752H24.8642V18.558H21.7562V27H19.7122V18.558H16.6042V16.752ZM34.7681 16.752L31.1701 21.75L34.9361 27H32.4161L29.9241 23.402L27.4181 27H25.0661L28.8181 21.792L25.2341 16.752H27.7121L30.0641 20.14L32.4161 16.752H34.7681ZM35.1159 16.752H43.3759V18.558H40.2679V27H38.2239V18.558H35.1159V16.752Z" fill="white"/>
<defs>
<filter id="filter0_d_1029_9440" x="31" y="31" width="30" height="30" filterUnits="userSpaceOnUse" color-interpolation-filters="sRGB">
<feFlood flood-opacity="0" result="BackgroundImageFix"/>
<feColorMatrix in="SourceAlpha" type="matrix" values="0 0 0 0 0 0 0 0 0 0 0 0 0 0 0 0 0 0 127 0" result="hardAlpha"/>
<feOffset/>
<feGaussianBlur stdDeviation="1.5"/>
<feComposite in2="hardAlpha" operator="out"/>
<feColorMatrix type="matrix" values="0 0 0 0 0.960784 0 0 0 0 0.505882 0 0 0 0 0.0392157 0 0 0 0.4 0"/>
<feBlend mode="normal" in2="BackgroundImageFix" result="effect1_dropShadow_1029_9440"/>
<feBlend mode="normal" in="SourceGraphic" in2="effect1_dropShadow_1029_9440" result="shape"/>
</filter>
<linearGradient id="paint0_linear_1029_9440" x1="46" y1="34" x2="46" y2="58" gradientUnits="userSpaceOnUse">
<stop stop-color="#FF9120"/>
<stop offset="1" stop-color="#E67500"/>
</linearGradient>
</defs>
</svg>
