<svg width="64" height="64" viewBox="0 0 64 64" fill="none" xmlns="http://www.w3.org/2000/svg">
<path d="M50 10C50 7.79086 48.2091 6 46 6H14C11.7909 6 10 7.79086 10 10V47C10 49.2091 11.7909 51 14 51H46C48.2091 51 50 49.2091 50 47V10Z" fill="#FB7545"/>
<path d="M50 36H10V47C10 49.2091 11.7909 51 14 51H46C48.2091 51 50 49.2091 50 47V36Z" fill="#FB622B"/>
<path d="M50 10C50 7.79086 48.2091 6 46 6H14C11.7909 6 10 7.79086 10 10V21H50V10Z" fill="#FB865D"/>
<path d="M24 30V22.5M24 22.5H33C35.2091 22.5 37 20.7091 37 18.5V18C37 15.7909 35.2091 14 33 14H24V19V22.5Z" stroke="white" stroke-width="4" stroke-linecap="round" stroke-linejoin="round"/>
<g filter="url(#filter0_d_1029_9697)">
<path d="M32 36C32 33.7909 33.7909 32 36 32H52C54.2091 32 56 33.7909 56 36V52C56 54.2091 54.2091 56 52 56H36C33.7909 56 32 54.2091 32 52V36Z" fill="url(#paint0_linear_1029_9697)"/>
</g>
<path d="M51.0318 45.0322L46.9995 41M51.0318 45.0322L46.9995 49M51.0318 45.0322L40.0317 45.0322C38.9272 45.0322 38.0317 44.1368 38.0317 43.0322L38.0317 39" stroke="white" stroke-width="2.5" stroke-linecap="round" stroke-linejoin="round"/>
<defs>
<filter id="filter0_d_1029_9697" x="29" y="28" width="30" height="30" filterUnits="userSpaceOnUse" color-interpolation-filters="sRGB">
<feFlood flood-opacity="0" result="BackgroundImageFix"/>
<feColorMatrix in="SourceAlpha" type="matrix" values="0 0 0 0 0 0 0 0 0 0 0 0 0 0 0 0 0 0 127 0" result="hardAlpha"/>
<feOffset dy="-1"/>
<feGaussianBlur stdDeviation="1.5"/>
<feComposite in2="hardAlpha" operator="out"/>
<feColorMatrix type="matrix" values="0 0 0 0 0.854902 0 0 0 0 0.4 0 0 0 0 0.239216 0 0 0 0.4 0"/>
<feBlend mode="normal" in2="BackgroundImageFix" result="effect1_dropShadow_1029_9697"/>
<feBlend mode="normal" in="SourceGraphic" in2="effect1_dropShadow_1029_9697" result="shape"/>
</filter>
<linearGradient id="paint0_linear_1029_9697" x1="43.5" y1="31.5" x2="43.5" y2="55.5" gradientUnits="userSpaceOnUse">
<stop stop-color="#FF7C43"/>
<stop offset="1" stop-color="#E45623"/>
</linearGradient>
</defs>
</svg>
